name rise30.2954peak35.7071fall66.7804.mot
datacolumns 19
datarows 23
range 3.12832500000000 3.16499100000000
endheader
time	ground_force1_vx	ground_force1_vy	ground_force1_vz	ground_force1_px	ground_force1_py	ground_force1_pz	ground_force2_vx	ground_force2_vy	ground_force2_vz	ground_force2_px	ground_force2_py	ground_force2_pz	ground_torque1_x	ground_torque1_y	ground_torque1_z	ground_torque2_x	ground_torque2_y	ground_torque2_z	
3.12832500000000	-47.58262400000000	835.44919500000003	51.10587300000000	0.09910200000000	0.00000000000000	0.08562100000000	-1.69600500000000	6.84781000000000	1.22845700000000	0.00000000000000	0.00000000000000	0.00000000000000	0.00000000000000	18.30629300000000	0.00000000000000	0.00000000000000	0.32793200000000	0.00000000000000	
3.12999000000000	-48.35056600000000	834.65460599999994	50.99432100000000	0.09817500000000	0.00000000000000	0.08556000000000	-2.47059400000000	10.71107200000000	1.86144400000000	0.00000000000000	0.00000000000000	0.00000000000000	0.00000000000000	18.25310400000000	0.00000000000000	0.00000000000000	0.50463100000000	0.00000000000000	
3.13165700000000	-49.13705800000000	833.74833999999998	50.86606500000000	0.09725300000000	0.00000000000000	0.08549500000000	-3.32604700000000	15.17417100000000	2.57908500000000	0.00000000000000	0.00000000000000	0.00000000000000	0.00000000000000	18.20117100000000	0.00000000000000	0.00000000000000	0.70679500000000	0.00000000000000	
3.13332400000000	-49.94239600000000	832.72832600000004	50.72074800000000	0.09633600000000	0.00000000000000	0.08542800000000	-4.23648300000000	20.15997700000000	3.36493900000000	0.00000000000000	0.00000000000000	0.00000000000000	0.00000000000000	18.15061400000000	0.00000000000000	0.00000000000000	0.93031500000000	0.00000000000000	
3.13499000000000	-50.76680300000000	831.59244600000000	50.55803900000000	0.09542500000000	0.00000000000000	0.08535800000000	-5.17172300000000	25.56753700000000	4.19873200000000	0.33611400000000	0.00000000000000	-0.08309300000000	0.00000000000000	18.10154400000000	0.00000000000000	0.00000000000000	2.15151000000000	0.00000000000000	
3.13665500000000	-51.61042300000000	830.33853899999997	50.37763200000000	0.09451900000000	0.00000000000000	0.08528500000000	-6.09948800000000	31.28033400000000	5.05788500000000	0.33946600000000	0.00000000000000	-0.08333500000000	0.00000000000000	18.05406000000000	0.00000000000000	0.00000000000000	2.62861100000000	0.00000000000000	
3.13833000000000	-52.47331700000000	828.96439399999997	50.17925000000000	0.09361800000000	0.00000000000000	0.08520900000000	-6.98783500000000	37.17607400000000	5.91927500000000	0.34251500000000	0.00000000000000	-0.08356500000000	0.00000000000000	18.00825000000000	0.00000000000000	0.00000000000000	3.11753000000000	0.00000000000000	
3.13998900000000	-53.35546100000000	827.46774900000003	49.96264300000000	0.09272100000000	0.00000000000000	0.08513000000000	-7.80748400000000	43.13661300000000	6.76097700000000	0.34529800000000	0.00000000000000	-0.08378400000000	0.00000000000000	17.96418900000000	0.00000000000000	0.00000000000000	3.60681500000000	0.00000000000000	
3.14165600000000	-54.25674000000000	825.84629299999995	49.72759100000000	0.09183000000000	0.00000000000000	0.08504900000000	-8.53375000000000	49.05670800000000	7.56376300000000	0.34784900000000	0.00000000000000	-0.08399600000000	0.00000000000000	17.92194100000000	0.00000000000000	0.00000000000000	4.08609400000000	0.00000000000000	
3.14332200000000	-55.17694800000000	824.09765900000002	49.47390600000000	0.09094200000000	0.00000000000000	0.08496500000000	-9.14787800000000	54.85067200000000	8.31220100000000	0.35019200000000	0.00000000000000	-0.08420100000000	0.00000000000000	17.88155400000000	0.00000000000000	0.00000000000000	4.54671200000000	0.00000000000000	
3.14499600000000	-56.11577700000000	822.21943299999998	49.20143200000000	0.09006000000000	0.00000000000000	0.08487800000000	-9.63771500000000	60.45649400000000	8.99529500000000	0.35235000000000	0.00000000000000	-0.08440100000000	0.00000000000000	17.84306400000000	0.00000000000000	0.00000000000000	4.98213300000000	0.00000000000000	
3.14666100000000	-57.07282300000000	820.20914700000003	48.91004200000000	0.08918100000000	0.00000000000000	0.08478900000000	-9.99773900000000	65.83737400000000	9.60665200000000	0.35434200000000	0.00000000000000	-0.08459800000000	0.00000000000000	17.80649100000000	0.00000000000000	0.00000000000000	5.38810900000000	0.00000000000000	
3.14833000000000	-58.04757600000000	818.06428700000004	48.59964700000000	0.08830700000000	0.00000000000000	0.08469700000000	-10.22854300000000	70.98093500000000	10.14425200000000	0.35618400000000	0.00000000000000	-0.08479300000000	0.00000000000000	17.77184100000000	0.00000000000000	0.00000000000000	5.76263200000000	0.00000000000000	
3.14999500000000	-59.03942200000000	815.78229099999999	48.27019000000000	0.08743600000000	0.00000000000000	0.08460200000000	-10.33591000000000	75.89656700000000	10.60989200000000	0.35789000000000	0.00000000000000	-0.08498600000000	0.00000000000000	17.73910600000000	0.00000000000000	0.00000000000000	6.10569800000000	0.00000000000000	
3.15165500000000	-60.04763700000000	813.36055499999998	47.92164600000000	0.08657000000000	0.00000000000000	0.08450500000000	-10.32961200000000	80.61143700000000	11.00841200000000	0.35947200000000	0.00000000000000	-0.08517700000000	0.00000000000000	17.70825800000000	0.00000000000000	0.00000000000000	6.41895800000000	0.00000000000000	
3.15332800000000	-61.07138900000000	810.79643699999997	47.55403000000000	0.08570700000000	0.00000000000000	0.08440600000000	-10.22209500000000	85.16573900000000	11.34680400000000	0.36094000000000	0.00000000000000	-0.08536900000000	0.00000000000000	17.67925800000000	0.00000000000000	0.00000000000000	6.70528000000000	0.00000000000000	
3.15499100000000	-62.10973300000000	808.08725900000002	47.16739000000000	0.08484700000000	0.00000000000000	0.08430400000000	-10.02717700000000	89.60769900000000	11.63330200000000	0.36230300000000	0.00000000000000	-0.08556000000000	0.00000000000000	17.65204600000000	0.00000000000000	0.00000000000000	6.96829400000000	0.00000000000000	
3.15667100000000	-63.16161200000000	805.23031600000002	46.76180800000000	0.08399100000000	0.00000000000000	0.08420000000000	-9.75885000000000	93.98878900000000	11.87652100000000	0.36357000000000	0.00000000000000	-0.08575200000000	0.00000000000000	17.62654900000000	0.00000000000000	0.00000000000000	7.21194200000000	0.00000000000000	
3.15832200000000	-64.22585300000000	802.22288200000003	46.33740500000000	0.08313700000000	0.00000000000000	0.08409400000000	-9.43027800000000	98.35950000000000	12.08471800000000	0.36474700000000	0.00000000000000	-0.08594500000000	0.00000000000000	17.60267500000000	0.00000000000000	0.00000000000000	7.44009300000000	0.00000000000000	
3.15999500000000	-65.30117199999999	799.06221200000005	45.89433700000000	0.08228700000000	0.00000000000000	0.08398600000000	-9.05303200000000	102.76589700000000	12.26520200000000	0.36584100000000	0.00000000000000	-0.08613900000000	0.00000000000000	17.58031600000000	0.00000000000000	0.00000000000000	7.65621800000000	0.00000000000000	
3.16166300000000	-66.38616700000000	795.74555799999996	45.43279600000000	0.08144000000000	0.00000000000000	0.08387600000000	-8.63657400000000	107.24710800000000	12.42392000000000	0.36685700000000	0.00000000000000	-0.08633400000000	0.00000000000000	17.55934600000000	0.00000000000000	0.00000000000000	7.86315700000000	0.00000000000000	
3.16332700000000	-67.47932700000000	792.27016800000001	44.95301000000000	0.08059500000000	0.00000000000000	0.08376300000000	-8.18799200000000	111.83374499999999	12.56521400000000	0.36780000000000	0.00000000000000	-0.08653000000000	0.00000000000000	17.53962500000000	0.00000000000000	0.00000000000000	8.06297000000000	0.00000000000000	
3.16499100000000	-68.57902400000000	788.63330499999995	44.45524500000000	0.07975200000000	0.00000000000000	0.08364900000000	-7.71196000000000	116.54723700000000	12.69174300000000	0.36867400000000	0.00000000000000	-0.08672900000000	0.00000000000000	17.52099400000000	0.00000000000000	0.00000000000000	8.25687900000000	0.00000000000000	
